<?xml version="1.0" encoding="UTF-8"?>
<svg width="750" height="471" viewBox="0 0 750 471" version="1.1" xmlns="http://www.w3.org/2000/svg">
  <g fill="none" fill-rule="evenodd">
    <rect fill="#2557D6" width="750" height="471" rx="40"/>
    <path d="M621.611 306.875H597.035L578.223 271.926L559.238 306.875H534.836L565.266 249.511L536.344 195.783H560.578L578.051 228.765L595.867 195.783H620.269L591.004 249.166L621.611 306.875ZM372.168 306.875H333.883V195.783H372.168C404.566 195.783 423.895 214.931 423.895 251.329C423.895 287.727 404.566 306.875 372.168 306.875ZM371.309 215.965H355.445V286.693H371.309C391.156 286.693 401.992 275.857 401.992 251.329C401.992 226.801 391.156 215.965 371.309 215.965ZM446.832 306.875H425.27V195.783H446.832V306.875ZM495.453 306.875H493.945L493.773 301.797C488.867 306.359 482.453 308.039 476.039 308.039C460.004 308.039 448.309 296.031 448.309 279.309C448.309 261.9 459.832 250.066 478.645 250.066C485.059 250.066 491.301 251.746 496.207 256.308V250.066C496.207 240.426 490.098 234.012 479.262 234.012C471.34 234.012 465.098 237.062 461.168 242.656L445.133 231.992C453.055 219.984 464.75 214.39 479.434 214.39C500.996 214.39 517.031 227.602 517.031 249.68V306.875H495.453ZM496.207 279.309C496.207 270.012 488.285 267.133 480.363 267.133C471.684 267.133 468.977 272.555 468.977 279.309C468.977 286.063 471.684 291.485 480.363 291.485C488.285 291.485 496.207 288.606 496.207 279.309ZM304.793 306.875H283.23V195.783H304.793V306.875ZM242.238 306.875H220.676V214.59H242.238V306.875ZM231.512 203.754C224.406 203.754 218.684 198.032 218.684 190.926C218.684 183.82 224.406 178.098 231.512 178.098C238.617 178.098 244.34 183.82 244.34 190.926C244.34 198.032 238.617 203.754 231.512 203.754ZM144.824 306.875H123.262V250.066C123.262 240.426 117.152 234.012 106.316 234.012C98.395 234.012 92.152 237.062 88.223 242.656L72.188 231.992C80.109 219.984 91.805 214.39 106.488 214.39C128.051 214.39 144.086 227.602 144.086 249.68V306.875H144.824ZM201.348 306.875H179.785V301.797C174.879 306.359 168.465 308.039 162.051 308.039C146.016 308.039 134.32 296.031 134.32 279.309C134.32 261.9 145.844 250.066 164.656 250.066C171.07 250.066 177.312 251.746 182.219 256.308V250.066C182.219 240.426 176.109 234.012 165.273 234.012C157.352 234.012 151.109 237.062 147.18 242.656L131.145 231.992C139.066 219.984 150.762 214.39 165.445 214.39C187.008 214.39 203.043 227.602 203.043 249.68V306.875H201.348ZM182.219 279.309C182.219 270.012 174.297 267.133 166.375 267.133C157.695 267.133 154.988 272.555 154.988 279.309C154.988 286.063 157.695 291.485 166.375 291.485C174.297 291.485 182.219 288.606 182.219 279.309Z" fill="#FFFFFF" fill-rule="nonzero"/>
  </g>
</svg>
