<?xml version="1.0" encoding="UTF-8"?>
<svg width="750" height="471" viewBox="0 0 750 471" version="1.1" xmlns="http://www.w3.org/2000/svg">
  <g fill="none" fill-rule="evenodd">
    <rect fill="#000000" width="750" height="471" rx="40"/>
    <path d="M305.001 166.605C305.001 257.406 231.428 331 140.664 331C49.9 331 -23.672 257.406 -23.672 166.605C-23.672 75.804 49.9 2.21 140.664 2.21C231.428 2.21 305.001 75.804 305.001 166.605Z" transform="translate(234.672 69.79)" fill="#D9222A"/>
    <path d="M203.431 166.605C203.431 214.392 164.776 253.065 117.013 253.065C69.25 253.065 30.595 214.392 30.595 166.605C30.595 118.818 69.25 80.145 117.013 80.145C164.776 80.145 203.431 118.818 203.431 166.605Z" transform="translate(234.672 69.79)" fill="#EE9F2D"/>
    <path d="M331.36 269.044C327.481 265.855 322.919 263.424 318.024 261.865C313.129 260.307 307.975 259.644 302.805 259.906C297.635 260.168 292.584 261.35 287.939 263.386C283.294 265.422 279.137 268.27 275.7 271.767C272.263 275.264 269.606 279.345 267.883 283.784C266.16 288.223 265.4 292.94 265.647 297.661C265.894 302.382 267.143 306.991 269.322 311.209C271.501 315.427 274.567 319.166 278.32 322.21C282.073 325.254 286.44 327.536 291.14 328.924C295.84 330.312 300.78 330.777 305.671 330.292C310.562 329.807 315.309 328.382 319.637 326.1C323.965 323.818 327.784 320.726 330.87 316.999C333.956 313.272 336.248 308.99 337.61 304.4C338.972 299.81 339.378 294.999 338.804 290.257C338.23 285.515 336.687 280.938 334.26 276.8C331.833 272.662 328.57 269.055 324.68 266.18" transform="translate(234.672 69.79)" fill="#D9222A"/>
    <path d="M476.55 307.804C476.55 306.384 476.32 305.424 475.86 304.924C475.4 304.424 474.48 304.174 473.1 304.174C472.28 304.174 471.58 304.304 471 304.564C470.42 304.824 469.96 305.194 469.62 305.674C469.28 306.154 469.11 306.724 469.11 307.384C469.11 308.044 469.28 308.614 469.62 309.094C469.96 309.574 470.42 309.944 471 310.204C471.58 310.464 472.28 310.594 473.1 310.594C474.48 310.594 475.4 310.344 475.86 309.844C476.32 309.344 476.55 308.684 476.55 307.804ZM479.15 307.804C479.15 308.644 478.97 309.374 478.61 309.994C478.25 310.614 477.72 311.094 477.02 311.434C476.32 311.774 475.46 311.944 474.44 311.944C473.42 311.944 472.56 311.774 471.86 311.434C471.16 311.094 470.63 310.614 470.27 309.994C469.91 309.374 469.73 308.644 469.73 307.804C469.73 306.964 469.91 306.234 470.27 305.614C470.63 304.994 471.16 304.514 471.86 304.174C472.56 303.834 473.42 303.664 474.44 303.664C475.46 303.664 476.32 303.834 477.02 304.174C477.72 304.514 478.25 304.994 478.61 305.614C478.97 306.234 479.15 306.964 479.15 307.804ZM483.97 311.774H481.37V303.834H484.21C485.07 303.834 485.75 303.944 486.25 304.164C486.75 304.384 487.13 304.694 487.39 305.094C487.65 305.494 487.78 305.954 487.78 306.474C487.78 307.034 487.63 307.514 487.33 307.914C487.03 308.314 486.6 308.594 486.04 308.754L488.06 311.774H485.22L483.49 309.044H483.97V311.774ZM483.97 307.804H484.09C484.55 307.804 484.89 307.714 485.11 307.534C485.33 307.354 485.44 307.094 485.44 306.754C485.44 306.414 485.33 306.154 485.11 305.974C484.89 305.794 484.55 305.704 484.09 305.704H483.97V307.804ZM493.82 311.774H488.06V303.834H493.82V305.704H490.66V306.904H493.58V308.774H490.66V309.904H493.82V311.774ZM499.7 303.834H502.3V311.774H500.08L497.1 307.384V311.774H494.5V303.834H496.72L499.7 308.224V303.834ZM506.32 311.774H503.72V303.834H506.32V311.774ZM513.08 307.804C513.08 306.384 512.85 305.424 512.39 304.924C511.93 304.424 511.01 304.174 509.63 304.174C508.81 304.174 508.11 304.304 507.53 304.564C506.95 304.824 506.49 305.194 506.15 305.674C505.81 306.154 505.64 306.724 505.64 307.384C505.64 308.044 505.81 308.614 506.15 309.094C506.49 309.574 506.95 309.944 507.53 310.204C508.11 310.464 508.81 310.594 509.63 310.594C511.01 310.594 511.93 310.344 512.39 309.844C512.85 309.344 513.08 308.684 513.08 307.804ZM515.68 307.804C515.68 308.644 515.5 309.374 515.14 309.994C514.78 310.614 514.25 311.094 513.55 311.434C512.85 311.774 511.99 311.944 510.97 311.944C509.95 311.944 509.09 311.774 508.39 311.434C507.69 311.094 507.16 310.614 506.8 309.994C506.44 309.374 506.26 308.644 506.26 307.804C506.26 306.964 506.44 306.234 506.8 305.614C507.16 304.994 507.69 304.514 508.39 304.174C509.09 303.834 509.95 303.664 510.97 303.664C511.99 303.664 512.85 303.834 513.55 304.174C514.25 304.514 514.78 304.994 515.14 305.614C515.5 306.234 515.68 306.964 515.68 307.804ZM522.82 311.774H520.22V305.704H517.9V303.834H525.14V305.704H522.82V311.774ZM529.9 311.774H527.3V303.834H529.9V311.774ZM537.38 307.804C537.38 306.384 537.15 305.424 536.69 304.924C536.23 304.424 535.31 304.174 533.93 304.174C533.11 304.174 532.41 304.304 531.83 304.564C531.25 304.824 530.79 305.194 530.45 305.674C530.11 306.154 529.94 306.724 529.94 307.384C529.94 308.044 530.11 308.614 530.45 309.094C530.79 309.574 531.25 309.944 531.83 310.204C532.41 310.464 533.11 310.594 533.93 310.594C535.31 310.594 536.23 310.344 536.69 309.844C537.15 309.344 537.38 308.684 537.38 307.804ZM539.98 307.804C539.98 308.644 539.8 309.374 539.44 309.994C539.08 310.614 538.55 311.094 537.85 311.434C537.15 311.774 536.29 311.944 535.27 311.944C534.25 311.944 533.39 311.774 532.69 311.434C531.99 311.094 531.46 310.614 531.1 309.994C530.74 309.374 530.56 308.644 530.56 307.804C530.56 306.964 530.74 306.234 531.1 305.614C531.46 304.994 531.99 304.514 532.69 304.174C533.39 303.834 534.25 303.664 535.27 303.664C536.29 303.664 537.15 303.834 537.85 304.174C538.55 304.514 539.08 304.994 539.44 305.614C539.8 306.234 539.98 306.964 539.98 307.804ZM547.12 311.774H541.36V303.834H547.12V305.704H543.96V306.904H546.88V308.774H543.96V309.904H547.12V311.774ZM553 311.774H550.4V305.704H548.08V303.834H555.32V305.704H553V311.774Z" transform="translate(234.672 69.79)" fill="#FFFFFF"/>
    <path d="M476.55 307.804C476.55 306.384 476.32 305.424 475.86 304.924C475.4 304.424 474.48 304.174 473.1 304.174C472.28 304.174 471.58 304.304 471 304.564C470.42 304.824 469.96 305.194 469.62 305.674C469.28 306.154 469.11 306.724 469.11 307.384C469.11 308.044 469.28 308.614 469.62 309.094C469.96 309.574 470.42 309.944 471 310.204C471.58 310.464 472.28 310.594 473.1 310.594C474.48 310.594 475.4 310.344 475.86 309.844C476.32 309.344 476.55 308.684 476.55 307.804ZM479.15 307.804C479.15 308.644 478.97 309.374 478.61 309.994C478.25 310.614 477.72 311.094 477.02 311.434C476.32 311.774 475.46 311.944 474.44 311.944C473.42 311.944 472.56 311.774 471.86 311.434C471.16 311.094 470.63 310.614 470.27 309.994C469.91 309.374 469.73 308.644 469.73 307.804C469.73 306.964 469.91 306.234 470.27 305.614C470.63 304.994 471.16 304.514 471.86 304.174C472.56 303.834 473.42 303.664 474.44 303.664C475.46 303.664 476.32 303.834 477.02 304.174C477.72 304.514 478.25 304.994 478.61 305.614C478.97 306.234 479.15 306.964 479.15 307.804ZM483.97 311.774H481.37V303.834H484.21C485.07 303.834 485.75 303.944 486.25 304.164C486.75 304.384 487.13 304.694 487.39 305.094C487.65 305.494 487.78 305.954 487.78 306.474C487.78 307.034 487.63 307.514 487.33 307.914C487.03 308.314 486.6 308.594 486.04 308.754L488.06 311.774H485.22L483.49 309.044H483.97V311.774ZM483.97 307.804H484.09C484.55 307.804 484.89 307.714 485.11 307.534C485.33 307.354 485.44 307.094 485.44 306.754C485.44 306.414 485.33 306.154 485.11 305.974C484.89 305.794 484.55 305.704 484.09 305.704H483.97V307.804ZM493.82 311.774H488.06V303.834H493.82V305.704H490.66V306.904H493.58V308.774H490.66V309.904H493.82V311.774ZM499.7 303.834H502.3V311.774H500.08L497.1 307.384V311.774H494.5V303.834H496.72L499.7 308.224V303.834ZM506.32 311.774H503.72V303.834H506.32V311.774ZM513.08 307.804C513.08 306.384 512.85 305.424 512.39 304.924C511.93 304.424 511.01 304.174 509.63 304.174C508.81 304.174 508.11 304.304 507.53 304.564C506.95 304.824 506.49 305.194 506.15 305.674C505.81 306.154 505.64 306.724 505.64 307.384C505.64 308.044 505.81 308.614 506.15 309.094C506.49 309.574 506.95 309.944 507.53 310.204C508.11 310.464 508.81 310.594 509.63 310.594C511.01 310.594 511.93 310.344 512.39 309.844C512.85 309.344 513.08 308.684 513.08 307.804ZM515.68 307.804C515.68 308.644 515.5 309.374 515.14 309.994C514.78 310.614 514.25 311.094 513.55 311.434C512.85 311.774 511.99 311.944 510.97 311.944C509.95 311.944 509.09 311.774 508.39 311.434C507.69 311.094 507.16 310.614 506.8 309.994C506.44 309.374 506.26 308.644 506.26 307.804C506.26 306.964 506.44 306.234 506.8 305.614C507.16 304.994 507.69 304.514 508.39 304.174C509.09 303.834 509.95 303.664 510.97 303.664C511.99 303.664 512.85 303.834 513.55 304.174C514.25 304.514 514.78 304.994 515.14 305.614C515.5 306.234 515.68 306.964 515.68 307.804ZM522.82 311.774H520.22V305.704H517.9V303.834H525.14V305.704H522.82V311.774ZM529.9 311.774H527.3V303.834H529.9V311.774ZM537.38 307.804C537.38 306.384 537.15 305.424 536.69 304.924C536.23 304.424 535.31 304.174 533.93 304.174C533.11 304.174 532.41 304.304 531.83 304.564C531.25 304.824 530.79 305.194 530.45 305.674C530.11 306.154 529.94 306.724 529.94 307.384C529.94 308.044 530.11 308.614 530.45 309.094C530.79 309.574 531.25 309.944 531.83 310.204C532.41 310.464 533.11 310.594 533.93 310.594C535.31 310.594 536.23 310.344 536.69 309.844C537.15 309.344 537.38 308.684 537.38 307.804ZM539.98 307.804C539.98 308.644 539.8 309.374 539.44 309.994C539.08 310.614 538.55 311.094 537.85 311.434C537.15 311.774 536.29 311.944 535.27 311.944C534.25 311.944 533.39 311.774 532.69 311.434C531.99 311.094 531.46 310.614 531.1 309.994C530.74 309.374 530.56 308.644 530.56 307.804C530.56 306.964 530.74 306.234 531.1 305.614C531.46 304.994 531.99 304.514 532.69 304.174C533.39 303.834 534.25 303.664 535.27 303.664C536.29 303.664 537.15 303.834 537.85 304.174C538.55 304.514 539.08 304.994 539.44 305.614C539.8 306.234 539.98 306.964 539.98 307.804ZM547.12 311.774H541.36V303.834H547.12V305.704H543.96V306.904H546.88V308.774H543.96V309.904H547.12V311.774ZM553 311.774H550.4V305.704H548.08V303.834H555.32V305.704H553V311.774Z" transform="translate(-234.672 69.79)" fill="#FFFFFF"/>
  </g>
</svg>
