<?xml version="1.0" encoding="UTF-8"?>
<svg width="750" height="471" viewBox="0 0 750 471" version="1.1" xmlns="http://www.w3.org/2000/svg">
  <g fill="none" fill-rule="evenodd">
    <rect fill="#FFFFFF" width="750" height="471" rx="40"/>
    <path d="M319.9 140.8c-11.5-13.6-31.2-19.8-56.9-19.8h-74.5c-5.1 0-9.5 3.7-10.3 8.8l-30.4 192.6c-0.6 3.8 2.3 7.3 6.1 7.3h44.5l11.2-70.9v2.2c0.8-5 4.9-8.8 10-8.8h20.9c40.9 0 72.9-16.6 82.3-64.7 0.3-1.5 0.5-2.9 0.7-4.3 2.9-18.3 0.2-30.8-9.6-42.4z" fill="#27346A"/>
    <path d="M329.5 183.2c-0.2 1.4-0.4 2.8-0.7 4.3-9.4 48.1-41.4 64.7-82.3 64.7h-20.9c-5.1 0-9.2 3.7-10 8.8v-2.2l-11.2 70.9h-44.5c-3.8 0-6.7-3.5-6.1-7.3l30.4-192.6c0.8-5 5.2-8.8 10.3-8.8h74.5c25.7 0 45.4 6.2 56.9 19.8 9.8 11.6 12.5 24.1 9.6 42.4z" fill="#27346A"/>
    <path d="M319.9 140.8c-11.5-13.6-31.2-19.8-56.9-19.8h-74.5c-5.1 0-9.5 3.7-10.3 8.8l-30.4 192.6c-0.6 3.8 2.3 7.3 6.1 7.3h44.5l11.2-70.9v2.2c0.8-5 4.9-8.8 10-8.8h20.9c40.9 0 72.9-16.6 82.3-64.7 0.3-1.5 0.5-2.9 0.7-4.3 2.9-18.3 0.2-30.8-9.6-42.4z" fill="#27346A"/>
    <path d="M204.7 140.8c1.2-7.6 7.7-13.2 15.5-13.2h98.9c11.8 0 22.7 0.8 32.7 2.4-8.4-47.5-45.7-62-89.5-62h-96.6c-8.5 0-15.7 6.2-17 14.6l-45.7 289.9c-1 6.3 3.8 12 10.2 12h75.4l19-120.7z" fill="#2790C3"/>
    <path d="M329.5 183.2c-10.2 51.5-42.9 78.9-98.9 78.9h-25.3c-7.8 0-14.3 5.6-15.5 13.2l-13.5 85.5-3.9 24.9c-0.7 4.3 2.7 8.2 7 8.2h49.2c5.8 0 10.7-4.2 11.6-9.9l0.5-2.5 9.2-58.4 0.6-3.2c0.9-5.7 5.8-9.9 11.6-9.9h7.3c47.2 0 84.1-19.2 94.9-74.6 4.5-23.2 2.2-42.5-9.8-56.1-3.6-4.1-8.2-7.5-13.5-10.3 4.1 12.1 5.2 25.2 2.5 42.2z" fill="#1F264F"/>
    <path d="M319.9 140.8c-11.5-13.6-31.2-19.8-56.9-19.8h-74.5c-5.1 0-9.5 3.7-10.3 8.8l-30.4 192.6c-0.6 3.8 2.3 7.3 6.1 7.3h44.5l11.2-70.9 19-120.7c1.2-7.6 7.7-13.2 15.5-13.2h98.9c11.8 0 22.7 0.8 32.7 2.4-3.5-1.9-7.3-3.6-11.5-5-12.1-3.9-25.8-5.5-44.3-5.5z" fill="#1F264F"/>
    <path d="M329.5 183.2c-0.2 1.4-0.4 2.8-0.7 4.3-9.4 48.1-41.4 64.7-82.3 64.7h-20.9c-5.1 0-9.2 3.7-10 8.8l-11.2 70.9-3.9 24.9c-0.6 3.8 2.3 7.3 6.1 7.3h42.7c5.1 0 9.5-3.7 10.3-8.8l4.2-26.7c0.8-5 5.2-8.8 10.3-8.8h26.1c40.9 0 72.9-16.6 82.3-64.7 3.8-19.3 1.8-35.3-8.2-46.6-3-3.6-6.8-6.5-11-9z" fill="#2790C3"/>
  </g>
</svg>
