<?xml version="1.0" encoding="UTF-8"?>
<svg width="750" height="471" viewBox="0 0 750 471" version="1.1" xmlns="http://www.w3.org/2000/svg">
  <g fill="none" fill-rule="evenodd">
    <rect fill="#0E4595" width="750" height="471" rx="40"/>
    <path d="M278.197 334.228L311.953 138.661H364.936L331.175 334.228H278.197Z" fill="#FFFFFF"/>
    <path d="M524.306 142.687C513.923 138.041 497.383 133 477.892 133C423.655 133 386.345 161.137 386.108 201.827C385.62 231.356 412.847 247.45 433.471 257.031C454.591 266.861 461.696 273.119 461.696 281.823C461.45 295.295 444.619 301.552 428.762 301.552C406.419 301.552 394.566 297.896 375.162 288.815L368.301 285.407L361.193 331.113C373.536 337.371 397.102 342.88 421.407 343.129C479.149 343.129 515.713 315.241 516.201 272.371C516.445 248.945 503.186 230.784 471.28 216.316C452.12 206.985 440.267 200.728 440.267 191.148C440.512 182.317 450.651 173.486 472.012 173.486C489.575 173.486 502.102 177.142 511.753 181.047L516.689 183.208L523.798 138.994L524.306 142.687Z" fill="#FFFFFF"/>
    <path d="M661.615 138.661H620.887C608.056 138.661 598.404 142.317 592.767 155.789L513.434 334.228H572.151C572.151 334.228 582.777 306.34 585.171 300.082C592.523 300.082 650.753 300.082 660.16 300.082C662.066 308.164 667.703 334.228 667.703 334.228H720.682L661.615 138.661ZM605.803 260.687C610.695 248.21 629.611 199.729 629.611 199.729C629.366 200.228 634.258 187.255 637.14 179.42L641.056 197.831C641.056 197.831 652.909 247.311 655.303 260.687H605.803Z" fill="#FFFFFF"/>
    <path d="M232.903 138.661L177.304 272.87L172.412 250.94C163.249 221.16 135.777 188.751 104.942 172.158L155.417 334.228L214.973 334.228L302.456 138.661L232.903 138.661Z" fill="#FFFFFF"/>
    <path d="M131.91 138.661H44.679L43.703 142.816C106.359 158.914 146.599 192.319 163.249 230.784L147.148 155.789C144.754 142.566 139.374 139.16 131.91 138.661Z" fill="#F2AE14"/>
  </g>
</svg>
